<?xml version="1.0" encoding="UTF-8" standalone="no"?>
<svg
   xmlns:dc="http://purl.org/dc/elements/1.1/"
   xmlns:cc="http://creativecommons.org/ns#"
   xmlns:rdf="http://www.w3.org/1999/02/22-rdf-syntax-ns#"
   xmlns:svg="http://www.w3.org/2000/svg"
   xmlns="http://www.w3.org/2000/svg"
   xmlns:sodipodi="http://sodipodi.sourceforge.net/DTD/sodipodi-0.dtd"
   xmlns:inkscape="http://www.inkscape.org/namespaces/inkscape"
   version="1.1"
   id="svg2"
   xml:space="preserve"
   width="405.06668"
   height="402.81332"
   viewBox="0 0 405.06668 402.81332"
   sodipodi:docname="o_Notiz.eps"><metadata
     id="metadata8"><rdf:RDF><cc:Work
         rdf:about=""><dc:format>image/svg+xml</dc:format><dc:type
           rdf:resource="http://purl.org/dc/dcmitype/StillImage" /></cc:Work></rdf:RDF></metadata><defs
     id="defs6" /><sodipodi:namedview
     pagecolor="#ffffff"
     bordercolor="#666666"
     borderopacity="1"
     objecttolerance="10"
     gridtolerance="10"
     guidetolerance="10"
     inkscape:pageopacity="0"
     inkscape:pageshadow="2"
     inkscape:window-width="640"
     inkscape:window-height="480"
     id="namedview4" /><g
     id="g10"
     inkscape:groupmode="layer"
     inkscape:label="ink_ext_XXXXXX"
     transform="matrix(1.3333333,0,0,-1.3333333,0,402.81333)"><g
       id="g12"
       transform="scale(0.1)"><path
         d="M 370.059,1364.77 C 464.242,685.012 1030.99,240.512 1680.06,330.441 c 394.71,54.7 701.3,293.868 877.01,541.661 l 55.9,-403.43 C 2399.72,233.461 2092.19,65.7617 1728.17,15.3203 894.902,-100.129 135.156,447.16 14.8398,1315.55 c -53.4804,385.99 41.293,734.33 224.5742,992.14 l 130.645,-942.92"
         style="fill:#4e1b1e;fill-opacity:1;fill-rule:nonzero;stroke:none"
         id="path14" /><path
         d="m 3022.72,1705.47 c 53.47,-385.91 -36.93,-733.72 -220.21,-991.529 L 2671.86,1656.86 C 2577.07,2341.06 2006.57,2780.51 1357.5,2690.57 958.434,2635.28 656.199,2396.71 484.859,2149.52 l -55.91,403.51 c 208.895,234.53 516.414,402.32 880.431,452.76 833.26,115.44 1593.02,-431.93 1713.34,-1300.32"
         style="fill:#f9a50d;fill-opacity:1;fill-rule:nonzero;stroke:none"
         id="path16" /></g></g></svg>
